<?xml version="1.0" standalone="no"?>
<!DOCTYPE svg PUBLIC "-//W3C//DTD SVG 20010904//EN"
 "http://www.w3.org/TR/2001/REC-SVG-20010904/DTD/svg10.dtd">
<svg version="1.0" xmlns="http://www.w3.org/2000/svg"
 width="288.000000pt" height="288.000000pt" viewBox="0 0 288.000000 288.000000"
 preserveAspectRatio="xMidYMid meet">
<metadata>
Created by potrace 1.14, written by Peter Selinger 2001-2017
</metadata>
<g transform="translate(0.000000,288.000000) scale(0.100000,-0.100000)"
fill="#000000" stroke="none">
<path d="M1290 2874 c-291 -42 -479 -114 -692 -264 -288 -203 -496 -522 -574
-880 -27 -122 -27 -458 0 -580 113 -514 477 -921 966 -1078 168 -54 247 -66
445 -66 148 0 198 4 281 22 308 67 552 202 762 421 365 382 490 936 326 1439
-174 530 -650 918 -1204 982 -81 9 -256 11 -310 4z"/>
</g>
</svg>
